<svg xmlns="http://www.w3.org/2000/svg"  viewBox="0 0 64 64" width="64px" height="64px"><path fill="#a2a2ea" d="M41.81,55H32.91a2,2,0,0,0-1.63.84l-4.49,6.32a2,2,0,0,1-1.63.84H21a2,2,0,0,1-2-2V57a2,2,0,0,0-2-2H7a2,2,0,0,1-2-2V13.66a4,4,0,0,1,1.17-2.83l4.66-4.66A4,4,0,0,1,13.66,5H56.89a2,2,0,0,1,2,2V37.62a4,4,0,0,1-1.14,2.8L44.67,53.8A4,4,0,0,1,41.81,55Z"/><path fill="#faefde" d="M51,36.8V14a1,1,0,0,0-1-1H14a1,1,0,0,0-1,1V46a1,1,0,0,0,1,1h8a1,1,0,0,1,1,1v4.64a1,1,0,0,0,1.79.61l4.54-5.87a1,1,0,0,1,.79-.39H40.49a2,2,0,0,0,1.39-.56l8.51-8.2A2,2,0,0,0,51,36.8Z"/><path fill="#fff7f0" d="M51 14V33.15L37.15 47h-7a1 1 0 0 0-.79.39l-4.54 5.86A1 1 0 0 1 23 52.64V48a1 1 0 0 0-1-1H14a1 1 0 0 1-.38-.08L47.54 13H50A1 1 0 0 1 51 14zM43.15 13L13 43.15 13 37.15 37.15 13 43.15 13zM34.15 13L13 34.15 13 31.15 31.15 13 34.15 13z"/><rect width="6" height="14" x="23" y="23" fill="#a2a2ea" rx="1" ry="1"/><rect width="6" height="14" x="35" y="23" fill="#a2a2ea" rx="1" ry="1"/><path fill="#8d6c9f" d="M56.89,4H13.66a5,5,0,0,0-3.54,1.46L5.46,10.12A5,5,0,0,0,4,13.66V53a3,3,0,0,0,3,3H17a1,1,0,0,1,1,1v4a3,3,0,0,0,3,3h4.16a3,3,0,0,0,2.45-1.26l4.49-6.32a1,1,0,0,1,.81-.42h8.89a5,5,0,0,0,3.58-1.5L58.46,41.11a5,5,0,0,0,1.42-3.5V7A3,3,0,0,0,56.89,4Zm1,33.62a3,3,0,0,1-.85,2.1L44,53.1a3,3,0,0,1-2.15.9H32.91a3,3,0,0,0-2.45,1.26L26,61.58a1,1,0,0,1-.82.42H21a1,1,0,0,1-1-1V57a3,3,0,0,0-3-3H7a1,1,0,0,1-1-1V13.66a3,3,0,0,1,.88-2.12l.19-.19A1,1,0,0,0,8,12h2a1,1,0,0,0,0-2H8.41l3.12-3.12A3,3,0,0,1,13.66,6H56.89a1,1,0,0,1,1,1Z"/><path fill="#8d6c9f" d="M50,12H14a2,2,0,0,0-2,2V46a2,2,0,0,0,2,2h8v4.64a2,2,0,0,0,1.35,1.89,2,2,0,0,0,.66.11,2,2,0,0,0,1.57-.78L30.12,48H40.49a3,3,0,0,0,2.08-.84L51.08,39A3,3,0,0,0,52,36.8V14A2,2,0,0,0,50,12Zm0,24.8a1,1,0,0,1-.31.72l-8.51,8.2a1,1,0,0,1-.69.28H30.12a2,2,0,0,0-1.58.78L24,52.64V48a2,2,0,0,0-2-2H14V14H50Z"/><path fill="#8d6c9f" d="M24 38h4a2 2 0 0 0 2-2V24a2 2 0 0 0-2-2H24a2 2 0 0 0-2 2V36A2 2 0 0 0 24 38zm0-14h4V36H24zM36 38h4a2 2 0 0 0 2-2V24a2 2 0 0 0-2-2H36a2 2 0 0 0-2 2V36A2 2 0 0 0 36 38zm0-14h4V36H36zM10 15H8a1 1 0 0 0 0 2h2a1 1 0 0 0 0-2zM10 50H8a1 1 0 0 0 0 2h2a1 1 0 0 0 0-2zM10 20H8a1 1 0 0 0 0 2h2a1 1 0 0 0 0-2zM10 25H8a1 1 0 0 0 0 2h2a1 1 0 0 0 0-2zM10 30H8a1 1 0 0 0 0 2h2a1 1 0 0 0 0-2zM10 35H8a1 1 0 0 0 0 2h2a1 1 0 0 0 0-2zM10 40H8a1 1 0 0 0 0 2h2a1 1 0 0 0 0-2zM10 45H8a1 1 0 0 0 0 2h2a1 1 0 0 0 0-2z"/><path fill="#fff" d="M19.65 16L20.89 18.26 23.15 19.5 20.89 20.74 19.65 23 18.41 20.74 16.15 19.5 18.41 18.26 19.65 16zM45.57 23L46.42 24.56 47.98 25.42 46.42 26.27 45.57 27.84 44.71 26.27 43.15 25.42 44.71 24.56 45.57 23zM23.8 41L24.38 42.06 25.44 42.65 24.38 43.23 23.8 44.3 23.21 43.23 22.15 42.65 23.21 42.06 23.8 41z"/></svg>